<?xml version="1.0" encoding="UTF-8"?>
<!DOCTYPE svg PUBLIC "-//W3C//DTD SVG 1.1//EN" "http://www.w3.org/Graphics/SVG/1.1/DTD/svg11.dtd">

<svg xmlns="http://www.w3.org/2000/svg" xml:space="preserve" width="1418.6mm" height="203.04mm" version="1.1" style="shape-rendering:geometricPrecision; text-rendering:geometricPrecision; image-rendering:optimizeQuality; fill-rule:evenodd; clip-rule:evenodd"
viewBox="0 0 141860 20304"
 xmlns:xlink="http://www.w3.org/1999/xlink">
 <defs>
  <style type="text/css">
   <![CDATA[
    .fil0 {fill:#003469;fill-rule:nonzero}
    .fil1 {fill:#B4B4B6;fill-rule:nonzero}
   ]]>
  </style>
 </defs>
 <g id="Capa_x0020_1">
  <metadata id="CorelCorpID_0Corel-Layer"/>
  <g id="_282433792">
   <path class="fil0" d="M117650 1375c407,-963 1019,-1348 2056,-1375l5944 0 -156 420c-133,355 -710,1888 -2400,1888l-3845 0c-1333,0 -2020,89 -2020,89l421 -1022z"/>
   <path class="fil0" d="M136772 13651c0,1417 1105,2523 2524,2523 1419,0 2564,-1106 2564,-2523 0,-1422 -1145,-2564 -2564,-2564 -1419,0 -2524,1142 -2524,2564z"/>
   <path class="fil0" d="M81889 9015l0 0c83,-466 105,-721 105,-1046 0,-1140 -545,-1814 -1448,-1814 -1176,0 -2121,999 -2707,2908l4050 -48zm-4409 1560c-81,583 -104,862 -104,1257 0,1560 651,2444 1847,2444 1071,0 1804,-582 2540,-1978l1700 0c-755,2396 -2287,3653 -4449,3653 -2373,0 -3798,-1630 -3798,-4351 0,-4003 2390,-7098 5477,-7098 2100,0 3378,1489 3378,3932 0,721 -64,1211 -295,2118l-6296 23z"/>
   <path class="fil0" d="M93410 4734l-776 3491 -1384 0c42,-301 63,-443 63,-606 0,-953 -610,-1511 -1616,-1511 -1008,0 -1702,580 -1702,1420 0,371 147,673 443,929 228,187 228,187 1259,815 942,605 1259,814 1616,1116 608,513 923,1211 923,2073 0,2001 -1597,3490 -3737,3490 -1301,0 -2202,-512 -2644,-1467l-272 1234 -1385 0 861 -3839 1384 0c-44,303 -63,441 -63,626 0,1120 755,1840 1932,1840 1070,0 1824,-674 1824,-1629 0,-417 -165,-768 -504,-1023 -250,-210 -250,-210 -1384,-908 -1889,-1140 -2351,-1722 -2351,-2955 0,-1909 1513,-3328 3527,-3328 1154,0 1909,396 2392,1257l231 -1025 1363 0z"/>
   <path class="fil0" d="M97964 7830l0 0c-545,1047 -1006,2931 -1006,4118 0,1421 629,2328 1635,2328 883,0 1639,-605 2225,-1792 546,-1115 925,-2725 925,-3935 0,-1488 -630,-2394 -1638,-2394 -840,0 -1574,556 -2141,1675zm294 -3096l-314 1397c799,-1070 1742,-1629 2812,-1629 1827,0 3108,1770 3108,4258 0,3864 -2352,7191 -5080,7191 -1321,0 -2183,-651 -2562,-1908l-1048 4679 1679 0 -357 1582 -5016 0 357 -1582 1405 0 2792 -12474 -1532 0 335 -1514 3421 0z"/>
   <path class="fil0" d="M110725 9900l0 0c-1300,279 -1889,465 -2539,790 -965,490 -1510,1235 -1510,2118 0,837 522,1396 1323,1396 754,0 1466,-486 1908,-1302 209,-418 294,-697 607,-2070l211 -932zm-4680 -1651l673 -2561c1133,-837 2118,-1186 3441,-1186 1910,0 3042,931 3042,2513 0,557 -62,954 -293,2025l-1154 5097 1447 0 -356 1582 -3316 0 336 -1582c-776,1257 -1616,1814 -2770,1814 -1532,0 -2624,-1140 -2624,-2745 0,-1584 1092,-2957 2959,-3678 966,-373 1698,-557 3589,-908l84 -419c105,-511 148,-720 148,-977 0,-697 -483,-1069 -1386,-1069 -1259,0 -1911,580 -2371,2094l-1449 0z"/>
   <path class="fil0" d="M119203 6527c882,-1375 1848,-2025 3003,-2025 1384,0 2307,1024 2307,2536 0,604 -62,955 -418,2607l-1028 4492 1553 0 -358 1582 -4700 0 356 -1582 1070 0 1134 -5027c127,-536 189,-1001 189,-1328 0,-791 -461,-1279 -1218,-1279 -670,0 -1301,396 -1784,1116 -294,466 -440,862 -692,2026l-1006 4492 1217 0 -337 1582 -4722 0 356 -1582 1386 0 1784 -7889 -1553 0 355 -1514 3508 0 -402 1793z"/>
   <path class="fil0" d="M132173 9900l0 0c-1298,279 -1886,465 -2536,790 -967,490 -1514,1235 -1514,2118 0,837 527,1396 1324,1396 756,0 1470,-486 1910,-1302 209,-418 292,-697 607,-2070l209 -932zm-4679 -1651l672 -2561c1134,-837 2121,-1186 3443,-1186 1910,0 3042,931 3042,2513 0,557 -63,954 -295,2025l-1152 5097 1447 0 -355 1582 -3318 0 336 -1582c-776,1257 -1615,1814 -2769,1814 -1533,0 -2624,-1140 -2624,-2745 0,-1584 1091,-2957 2960,-3678 965,-373 1699,-557 3589,-908l83 -419c103,-511 147,-720 147,-977 0,-697 -484,-1069 -1386,-1069 -1258,0 -1910,580 -2371,2094l-1449 0z"/>
   <polygon class="fil1" points="7431,11693 10911,4483 13241,4483 13725,15948 11608,15948 11290,8198 11260,8198 7431,15948 6388,15948 4570,7978 4541,7978 2210,15948 0,15948 3361,4483 5767,4483 "/>
   <polygon class="fil1" points="15207,15948 16661,4483 23106,4483 22865,6398 18612,6398 18266,9105 22002,9105 21760,11022 18023,11022 17645,14032 23000,14032 22760,15948 "/>
   <path class="fil1" d="M26497 14032l2057 0c2437,0 3435,-2018 3435,-4002 0,-2018 -1211,-3632 -3481,-3632l-1058 0 -953 7634zm2435 -9549c4117,0 5328,3093 5328,5581 0,3413 -2119,5884 -4874,5884l-5325 0 1437 -11465 3434 0z"/>
   <polygon class="fil1" points="35303,15948 36755,4483 38949,4483 37497,15948 "/>
   <path class="fil1" d="M45290 11812l0 0 -545 -5077 -31 0 -1815 5077 2391 0zm-6447 4136l5054 -11617 2331 0 1815 11617 -2254 0 -318 -2506 -3208 0 -998 2506 -2422 0z"/>
   <path class="fil1" d="M48846 13005c832,673 2058,1176 2918,1176 895,0 1484,-503 1484,-1258 0,-1901 -3797,-2122 -3797,-5128 0,-1985 1544,-3464 3631,-3464 999,0 2058,319 2951,907l-303 2019c-666,-539 -1769,-1009 -2558,-1009 -801,0 -1453,504 -1453,1261 0,1646 3799,1866 3799,5077 0,1848 -1180,3513 -3494,3513 -1500,0 -2589,-420 -3512,-1092l334 -2002z"/>
   <polygon class="fil1" points="56760,15948 58211,4483 64658,4483 64415,6398 60164,6398 59813,9105 63553,9105 63310,11022 59573,11022 59195,14032 64550,14032 64311,15948 "/>
   <polygon class="fil1" points="65806,6398 66049,4483 74870,4483 74630,6398 71270,6398 70060,15948 67865,15948 69075,6398 "/>
  </g>
 </g>
</svg>
